<svg width="178" height="45" viewBox="0 0 178 45" fill="none" xmlns="http://www.w3.org/2000/svg">
<path d="M13.832 12.541C16.4139 12.541 18.6885 12.9918 20.6557 13.8934C22.623 14.7951 24.1393 16.0451 25.2049 17.6434C26.2705 19.2008 26.8033 20.9836 26.8033 22.9918V43.709C26.8033 43.9139 26.7213 44.0984 26.5574 44.2623C26.4344 44.3852 26.2705 44.4467 26.0656 44.4467H20.4098C20.2049 44.4467 20.0205 44.3852 19.8566 44.2623C19.7336 44.0984 19.6721 43.9139 19.6721 43.709V41.7418C19.6721 41.6189 19.6311 41.5574 19.5492 41.5574C19.4672 41.5164 19.3852 41.5369 19.3033 41.6189C17.2951 43.832 14.3852 44.9385 10.5738 44.9385C7.5 44.9385 4.95902 44.1598 2.95082 42.6025C0.983607 41.0451 0 38.7295 0 35.6557C0 32.459 1.10656 29.9795 3.31967 28.2172C5.57377 26.4139 8.72951 25.5123 12.7869 25.5123H19.3648C19.5697 25.5123 19.6721 25.4098 19.6721 25.2049V23.7295C19.6721 22.1311 19.2008 20.9016 18.2582 20.041C17.3156 19.1393 15.9016 18.6885 14.0164 18.6885C12.459 18.6885 11.1885 18.9754 10.2049 19.5492C9.2623 20.082 8.66803 20.8402 8.42213 21.8238C8.29918 22.3156 8.01229 22.5205 7.56147 22.4385L1.59836 21.7008C1.39344 21.6598 1.20902 21.5984 1.04508 21.5164C0.922131 21.3934 0.881148 21.25 0.922131 21.0861C1.25 18.5861 2.58197 16.5369 4.91803 14.9385C7.29508 13.3402 10.2664 12.541 13.832 12.541ZM12.3566 39.2828C14.3648 39.2828 16.0861 38.75 17.5205 37.6844C18.9549 36.6189 19.6721 35.2664 19.6721 33.627V30.7377C19.6721 30.5328 19.5697 30.4303 19.3648 30.4303H14.2008C12.0287 30.4303 10.3074 30.8402 9.03689 31.6598C7.80738 32.4795 7.19262 33.6475 7.19262 35.1639C7.19262 36.4754 7.66393 37.5 8.60656 38.2377C9.59016 38.9344 10.8402 39.2828 12.3566 39.2828Z" fill="white"/>
<path d="M36.1759 8.72951C34.9054 8.72951 33.8603 8.31967 33.0406 7.5C32.221 6.68033 31.8111 5.63525 31.8111 4.36476C31.8111 3.09427 32.221 2.04918 33.0406 1.22951C33.8603 0.409838 34.9054 0 36.1759 0C37.4464 0 38.4914 0.409838 39.3111 1.22951C40.1308 2.04918 40.5406 3.09427 40.5406 4.36476C40.5406 5.63525 40.1308 6.68033 39.3111 7.5C38.4914 8.31967 37.4464 8.72951 36.1759 8.72951ZM33.2251 44.4467C33.0201 44.4467 32.8357 44.3852 32.6718 44.2623C32.5488 44.0984 32.4874 43.9139 32.4874 43.709V13.709C32.4874 13.5041 32.5488 13.3402 32.6718 13.2172C32.8357 13.0533 33.0201 12.9713 33.2251 12.9713H38.8808C39.0857 12.9713 39.2496 13.0533 39.3726 13.2172C39.5365 13.3402 39.6185 13.5041 39.6185 13.709V43.709C39.6185 43.9139 39.5365 44.0984 39.3726 44.2623C39.2496 44.3852 39.0857 44.4467 38.8808 44.4467H33.2251Z" fill="white"/>
<path d="M60.5744 12.6639C61.8859 12.6639 63.0334 12.9303 64.017 13.4631C64.3449 13.6271 64.4678 13.9344 64.3859 14.3852L63.3408 19.918C63.2998 20.4098 63.0129 20.5533 62.4801 20.3484C61.8654 20.1434 61.1482 20.041 60.3285 20.041C59.7957 20.041 59.3859 20.0615 59.099 20.1025C57.3777 20.1844 55.9433 20.7992 54.7957 21.9467C53.6482 23.0533 53.0744 24.5082 53.0744 26.3115V43.709C53.0744 43.9139 52.9924 44.0984 52.8285 44.2623C52.7056 44.3852 52.5416 44.4467 52.3367 44.4467H46.681C46.476 44.4467 46.2916 44.3852 46.1277 44.2623C46.0047 44.0984 45.9433 43.9139 45.9433 43.709V13.7705C45.9433 13.5656 46.0047 13.4016 46.1277 13.2787C46.2916 13.1148 46.476 13.0328 46.681 13.0328H52.3367C52.5416 13.0328 52.7056 13.1148 52.8285 13.2787C52.9924 13.4016 53.0744 13.5656 53.0744 13.7705V16.5369C53.0744 16.7008 53.0949 16.8033 53.1359 16.8443C53.2178 16.8443 53.2998 16.7828 53.3818 16.6598C55.1031 13.9959 57.5006 12.6639 60.5744 12.6639Z" fill="white"/>
<path d="M82.2738 12.541C85.5935 12.541 88.2369 13.5246 90.2041 15.4918C92.2123 17.459 93.2164 20.1434 93.2164 23.5451V43.709C93.2164 43.9139 93.1344 44.0984 92.9705 44.2623C92.8475 44.3852 92.6836 44.4467 92.4787 44.4467H86.823C86.618 44.4467 86.4336 44.3852 86.2697 44.2623C86.1467 44.0984 86.0853 43.9139 86.0853 43.709V25.0205C86.0853 23.1353 85.5525 21.6189 84.4869 20.4713C83.4213 19.2828 82.0074 18.6885 80.2451 18.6885C78.4828 18.6885 77.0484 19.2623 75.9418 20.4098C74.8762 21.5574 74.3435 23.0738 74.3435 24.959V43.709C74.3435 43.9139 74.2615 44.0984 74.0976 44.2623C73.9746 44.3852 73.8107 44.4467 73.6058 44.4467H67.95C67.7451 44.4467 67.5607 44.3852 67.3967 44.2623C67.2738 44.0984 67.2123 43.9139 67.2123 43.709V13.7705C67.2123 13.5656 67.2738 13.4016 67.3967 13.2787C67.5607 13.1148 67.7451 13.0328 67.95 13.0328H73.6058C73.8107 13.0328 73.9746 13.1148 74.0976 13.2787C74.2615 13.4016 74.3435 13.5656 74.3435 13.7705V15.7377C74.3435 15.8607 74.3844 15.9426 74.4664 15.9836C74.5484 16.0246 74.6098 15.9836 74.6508 15.8607C76.3312 13.6475 78.8721 12.541 82.2738 12.541Z" fill="white"/>
<path d="M111.907 44.9385C108.67 44.9385 105.883 44.1189 103.547 42.4795C101.252 40.8402 99.6327 38.5656 98.6901 35.6557C97.9934 33.4426 97.645 31.1066 97.645 28.6475C97.645 26.0246 97.9729 23.6885 98.6286 21.6393C99.5713 18.7705 101.211 16.5369 103.547 14.9385C105.883 13.3402 108.69 12.541 111.969 12.541C115.084 12.541 117.768 13.3402 120.022 14.9385C122.317 16.5369 123.936 18.75 124.879 21.5779C125.616 23.5451 125.985 25.8811 125.985 28.5861C125.985 31.168 125.637 33.5041 124.94 35.5943C123.997 38.5041 122.379 40.7992 120.084 42.4795C117.788 44.1189 115.063 44.9385 111.907 44.9385ZM111.907 38.791C113.424 38.791 114.715 38.3607 115.78 37.5C116.887 36.6393 117.686 35.4303 118.178 33.873C118.588 32.5205 118.793 30.7992 118.793 28.709C118.793 26.4959 118.588 24.7746 118.178 23.5451C117.727 21.9877 116.948 20.7992 115.842 19.9795C114.735 19.1189 113.383 18.6885 111.784 18.6885C110.268 18.6885 108.957 19.1189 107.85 19.9795C106.743 20.7992 105.944 21.9877 105.452 23.5451C105.043 24.9795 104.838 26.7008 104.838 28.709C104.838 30.7172 105.043 32.4385 105.452 33.873C105.903 35.4303 106.682 36.6393 107.788 37.5C108.936 38.3607 110.309 38.791 111.907 38.791Z" fill="white"/>
<path d="M146.882 18.0738C146.882 18.2787 146.8 18.4631 146.636 18.6271C146.513 18.75 146.349 18.8115 146.144 18.8115H139.874C139.669 18.8115 139.566 18.9139 139.566 19.1189V33.9344C139.566 35.4918 139.894 36.6189 140.55 37.3156C141.247 38.0123 142.333 38.3607 143.808 38.3607H145.653C145.857 38.3607 146.021 38.4426 146.144 38.6066C146.308 38.7295 146.39 38.8934 146.39 39.0984V43.709C146.39 44.1598 146.144 44.4262 145.653 44.5082L142.456 44.5697C139.218 44.5697 136.8 44.0164 135.202 42.9098C133.603 41.8033 132.784 39.7131 132.743 36.6393V19.1189C132.743 18.9139 132.64 18.8115 132.435 18.8115H128.931C128.726 18.8115 128.542 18.75 128.378 18.6271C128.255 18.4631 128.194 18.2787 128.194 18.0738V13.7705C128.194 13.5656 128.255 13.4016 128.378 13.2787C128.542 13.1148 128.726 13.0328 128.931 13.0328H132.435C132.64 13.0328 132.743 12.9303 132.743 12.7254V5.53279C132.743 5.32787 132.804 5.16394 132.927 5.04099C133.091 4.87705 133.275 4.79508 133.48 4.79508H138.829C139.034 4.79508 139.198 4.87705 139.321 5.04099C139.484 5.16394 139.566 5.32787 139.566 5.53279V12.7254C139.566 12.9303 139.669 13.0328 139.874 13.0328H146.144C146.349 13.0328 146.513 13.1148 146.636 13.2787C146.8 13.4016 146.882 13.5656 146.882 13.7705V18.0738Z" fill="white"/>
<path d="M177.267 25.2049C177.431 26.2295 177.513 27.3771 177.513 28.6475L177.451 30.5533C177.451 31.0451 177.205 31.291 176.713 31.291H157.472C157.267 31.291 157.164 31.3934 157.164 31.5984C157.287 32.9508 157.472 33.873 157.718 34.3648C158.701 37.3156 161.099 38.8115 164.91 38.8525C167.697 38.8525 169.91 37.7049 171.55 35.4098C171.713 35.1639 171.918 35.041 172.164 35.041C172.328 35.041 172.472 35.1025 172.595 35.2254L176.406 38.3607C176.775 38.6475 176.836 38.9754 176.591 39.3443C175.32 41.1475 173.619 42.541 171.488 43.5246C169.398 44.5082 167.062 45 164.48 45C161.283 45 158.558 44.2828 156.304 42.8484C154.091 41.4139 152.472 39.4057 151.447 36.8238C150.504 34.6107 150.033 31.5369 150.033 27.6025C150.033 25.2254 150.279 23.2992 150.771 21.8238C151.59 18.9549 153.127 16.7008 155.382 15.0615C157.677 13.3811 160.422 12.541 163.619 12.541C171.693 12.541 176.242 16.7623 177.267 25.2049ZM163.619 18.6885C162.103 18.6885 160.832 19.0779 159.808 19.8566C158.824 20.5943 158.127 21.6393 157.718 22.9918C157.472 23.6885 157.308 24.5902 157.226 25.6967C157.144 25.9016 157.226 26.0041 157.472 26.0041H169.951C170.156 26.0041 170.259 25.9016 170.259 25.6967C170.177 24.6721 170.054 23.8934 169.89 23.3607C169.521 21.8852 168.783 20.7377 167.677 19.918C166.611 19.0984 165.259 18.6885 163.619 18.6885Z" fill="white"/>
</svg>
